GIL08_xslow2_ik
nRows=3
nColumns=375

# SIMM Motion File Header:
name GIL08_xslow2_ik
datacolumns 375
datarows 3
otherdata 1
range 0.63333000 0.65000000
endheader
time	pelvis_tx	pelvis_ty	pelvis_tz	pelvis_tilt	pelvis_list	pelvis_rotation	hip_flexion_r	hip_adduction_r	hip_rotation_r	knee_angle_r	ankle_angle_r	hip_flexion_l	hip_adduction_l	hip_rotation_l	knee_angle_l	ankle_angle_l	lumbar_extension	lumbar_bending	lumbar_rotation	subtalar_angle_r	mtp_angle_r	subtalar_angle_l	mtp_angle_l	asis_r_px	asis_r_py	asis_r_pz	asis_l_px	asis_l_py	asis_l_pz	midasis_px	midasis_py	midasis_pz	psis_r_px	psis_r_py	psis_r_pz	psis_l_px	psis_l_py	psis_l_pz	hip_r_px	hip_r_py	hip_r_pz	hip_l_px	hip_l_py	hip_l_pz	midhip_px	midhip_py	midhip_pz	epicondLat_r_px	epicondLat_r_py	epicondLat_r_pz	epicondMed_r_px	epicondMed_r_py	epicondMed_r_pz	thighwand_r_px	thighwand_r_py	thighwand_r_pz	upperleg1_r_px	upperleg1_r_py	upperleg1_r_pz	upperleg2_r_px	upperleg2_r_py	upperleg2_r_pz	malleolusLat_r_px	malleolusLat_r_py	malleolusLat_r_pz	malleolusMedv_r_px	malleolusMedv_r_py	malleolusMedv_r_pz	shankwand_r_px	shankwand_r_py	shankwand_r_pz	lowerleg1_r_px	lowerleg1_r_py	lowerleg1_r_pz	knee_r_px	knee_r_py	knee_r_pz	ankle_r_px	ankle_r_py	ankle_r_pz	toe_r_px	toe_r_py	toe_r_pz	epicondLat_l_px	epicondLat_l_py	epicondLat_l_pz	epicondMed_l_px	epicondMed_l_py	epicondMed_l_pz	thighwand_l_px	thighwand_l_py	thighwand_l_pz	upperleg1_l_px	upperleg1_l_py	upperleg1_l_pz	upperleg2_l_px	upperleg2_l_py	upperleg2_l_pz	malleolusLat_l_px	malleolusLat_l_py	malleolusLat_l_pz	malleolusMedv_l_px	malleolusMedv_l_py	malleolusMedv_l_pz	shankwand_l_px	shankwand_l_py	shankwand_l_pz	lowerleg1_l_px	lowerleg1_l_py	lowerleg1_l_pz	knee_l_px	knee_l_py	knee_l_pz	ankle_l_px	ankle_l_py	ankle_l_pz	toe_l_px	toe_l_py	toe_l_pz	subclavicle_r_px	subclavicle_r_py	subclavicle_r_pz	subclavicle_l_px	subclavicle_l_py	subclavicle_l_pz	neck_px	neck_py	neck_pz	sternalnotch_px	sternalnotch_py	sternalnotch_pz	xyphoidprocess_px	xyphoidprocess_py	xyphoidprocess_pz	midhip_tx	midhip_ty	midhip_tz	hip_r_tx	hip_r_ty	hip_r_tz	hip_l_tx	hip_l_ty	hip_l_tz	knee_r_tx	knee_r_ty	knee_r_tz	knee_l_tx	knee_l_ty	knee_l_tz	ankle_r_tx	ankle_r_ty	ankle_r_tz	ankle_l_tx	ankle_l_ty	ankle_l_tz	midasis_tx	midasis_ty	midasis_tz	asis_r_tx	asis_r_ty	asis_r_tz	asis_l_tx	asis_l_ty	asis_l_tz	psis_r_tx	psis_r_ty	psis_r_tz	psis_l_tx	psis_l_ty	psis_l_tz	epicondLat_r_tx	epicondLat_r_ty	epicondLat_r_tz	epicondLat_l_tx	epicondLat_l_ty	epicondLat_l_tz	epicondMed_r_tx	epicondMed_r_ty	epicondMed_r_tz	epicondMed_l_tx	epicondMed_l_ty	epicondMed_l_tz	malleolusLat_r_tx	malleolusLat_r_ty	malleolusLat_r_tz	malleolusLat_l_tx	malleolusLat_l_ty	malleolusLat_l_tz	malleolusMedv_r_tx	malleolusMedv_r_ty	malleolusMedv_r_tz	malleolusMedv_l_tx	malleolusMedv_l_ty	malleolusMedv_l_tz	neck_tx	neck_ty	neck_tz	subclavicle_r_tx	subclavicle_r_ty	subclavicle_r_tz	subclavicle_l_tx	subclavicle_l_ty	subclavicle_l_tz	sternalnotch_tx	sternalnotch_ty	sternalnotch_tz	xyphoidprocess_tx	xyphoidprocess_ty	xyphoidprocess_tz	thighwand_r_tx	thighwand_r_ty	thighwand_r_tz	thighwand_l_tx	thighwand_l_ty	thighwand_l_tz	upperleg1_r_tx	upperleg1_r_ty	upperleg1_r_tz	upperleg1_l_tx	upperleg1_l_ty	upperleg1_l_tz	upperleg2_r_tx	upperleg2_r_ty	upperleg2_r_tz	upperleg2_l_tx	upperleg2_l_ty	upperleg2_l_tz	shankwand_r_tx	shankwand_r_ty	shankwand_r_tz	shankwand_l_tx	shankwand_l_ty	shankwand_l_tz	lowerleg1_r_tx	lowerleg1_r_ty	lowerleg1_r_tz	lowerleg1_l_tx	lowerleg1_l_ty	lowerleg1_l_tz	toe_r_tx	toe_r_ty	toe_r_tz	toe_l_tx	toe_l_ty	toe_l_tz	ground_force_vx	ground_force_vy	ground_force_vz	ground_force_px	ground_force_py	ground_force_pz	ground_force_vx	ground_force_vy	ground_force_vz	ground_force_px	ground_force_py	ground_force_pz	ground_torque_x	ground_torque_y	ground_torque_z	ground_torque_x	ground_torque_y	ground_torque_z	ground_marker_px	ground_marker_py	ground_marker_pz	ground_marker_px	ground_marker_py	ground_marker_pz	ground_marker_px	ground_marker_py	ground_marker_pz	ground_marker_px	ground_marker_py	ground_marker_pz	ground_marker_px	ground_marker_py	ground_marker_pz	ground_marker_px	ground_marker_py	ground_marker_pz	ground_marker_px	ground_marker_py	ground_marker_pz	ground_marker_px	ground_marker_py	ground_marker_pz	ground_marker_px	ground_marker_py	ground_marker_pz	ground_marker_px	ground_marker_py	ground_marker_pz	ground_marker_px	ground_marker_py	ground_marker_pz	ground_marker_px	ground_marker_py	ground_marker_pz	ground_marker_px	ground_marker_py	ground_marker_pz	ground_marker_px	ground_marker_py	ground_marker_pz	ground_marker_px	ground_marker_py	ground_marker_pz	ground_marker_px	ground_marker_py	ground_marker_pz	ground_marker_px	ground_marker_py	ground_marker_pz	ground_marker_px	ground_marker_py	ground_marker_pz	ground_marker_px	ground_marker_py	ground_marker_pz	ground_marker_px	ground_marker_py	ground_marker_pz	ground_marker_px	ground_marker_py	ground_marker_pz	ground_marker_px	ground_marker_py	ground_marker_pz	ground_marker_px	ground_marker_py	ground_marker_pz	ground_marker_px	ground_marker_py	ground_marker_pz	ground_marker_px	ground_marker_py	ground_marker_pz	ground_marker_px	ground_marker_py	ground_marker_pz	ground_marker_px	ground_marker_py	ground_marker_pz	ground_marker_px	ground_marker_py	ground_marker_pz	ground_marker_px	ground_marker_py	ground_marker_pz	ground_marker_px	ground_marker_py	ground_marker_pz	ground_marker_px	ground_marker_py	ground_marker_pz	ground_marker_px	ground_marker_py	ground_marker_pz	ground_marker_px	ground_marker_py	ground_marker_pz	ground_marker_px	ground_marker_py	ground_marker_pz	ground_marker_px	ground_marker_py	ground_marker_pz	ground_marker_px	ground_marker_py	ground_marker_pz	ground_marker_px	ground_marker_py	ground_marker_pz
      0.63333000	     -0.65384128	      0.96671356	      0.26592717	      4.53799007	     -2.22477027	     -1.04361717	     14.24368567	      1.17868012	      4.28492315	    -18.44543040	      8.18423919	     -5.70011576	     -0.34921696	      7.80879164	    -10.89891601	     10.92686449	    -12.96617433	     -1.06120412	      5.92551595	      0.00000000	      0.00000000	      0.00000000	      0.00000000	     -0.60915395	      0.99378188	      0.36534333	     -0.61201401	      0.98907542	      0.15246008	     -0.64223205	      0.96764323	      0.26613917	     -0.81313559	      0.98700769	      0.30541947	     -0.81672923	      0.98561551	      0.21733217	     -0.70959454	      0.90982369	      0.33640155	     -0.70664504	      0.90464780	      0.19758154	     -0.70811979	      0.90723574	      0.26699155	     -0.51889924	      0.51533215	      0.39204836	     -0.55627945	      0.52080486	      0.27754440	     -0.51831439	      0.64255655	      0.46178294	     -0.53316185	      0.69877644	      0.38798051	     -0.50922940	      0.62022143	      0.36759456	     -0.58286915	      0.08319363	      0.40559065	     -0.58749977	      0.07970364	      0.33729525	     -0.55413663	      0.15798278	      0.46606750	     -0.57042890	      0.21431043	      0.40288009	     -0.57725498	      0.51683426	      0.34542954	     -0.57447618	      0.10039400	      0.36273508	     -0.45673271	      0.07766940	      0.36045682	     -0.67079159	      0.46850204	      0.14438026	     -0.70346674	      0.47875047	      0.24703886	     -0.53693181	      0.60818310	      0.21779151	     -0.60461853	      0.66676642	      0.16716274	     -0.61587424	      0.58071815	      0.16810151	     -0.81067543	      0.06271377	      0.16895923	     -0.80894440	      0.07084301	      0.23830721	     -0.68388030	      0.14554664	      0.22515531	     -0.73594384	      0.20923055	      0.20491128	     -0.71802077	      0.49097985	      0.20982223	     -0.80409980	      0.08315628	      0.20998485	     -0.68081926	      0.03643996	      0.21131466	     -0.65511304	      1.37352534	      0.32879444	     -0.66090360	      1.37055647	      0.17328236	     -0.75299582	      1.45002980	      0.24251932	     -0.67036375	      1.37402014	      0.24749649	     -0.64500655	      1.17069364	      0.24377232	     -0.71187000	      0.90718300	      0.26267900	     -0.71692300	      0.89416900	      0.31833900	     -0.71476400	      0.89042600	      0.21185700	     -0.57937100	      0.50023200	      0.33259500	     -0.72004700	      0.47793400	      0.21467400	     -0.57407200	      0.08164100	      0.34627100	     -0.80886400	      0.06842300	      0.23634700	     -0.63772000	      0.98960400	      0.26326100	     -0.63983500	      0.99327200	      0.36758800	     -0.63560500	      0.98593700	      0.15893400	     -0.83817100	      1.01445200	      0.29973000	     -0.83930700	      1.01508300	      0.21553200	     -0.57613700	      0.50350900	      0.39191600	     -0.71062300	      0.47741200	      0.15592700	     -0.59035500	      0.50275900	      0.27677700	     -0.74266400	      0.48254700	      0.26032200	     -0.58090300	      0.08277500	      0.38363400	     -0.80698400	      0.06593100	      0.19697000	     -0.57887400	      0.08935500	      0.31414500	     -0.80316100	      0.07791800	      0.26588100	     -0.74536300	      1.47161900	      0.24141300	     -0.65747400	      1.39530800	      0.32788400	     -0.65492700	      1.39186000	      0.17188800	     -0.66829200	      1.39589900	      0.24567400	     -0.64855300	      1.19188400	      0.24375800	     -0.58334700	      0.60506000	      0.47607600	     -0.57356600	      0.60071800	      0.21332700	     -0.57810100	      0.66955600	      0.40453100	     -0.64065400	      0.66167200	      0.16456800	     -0.55638800	      0.59134600	      0.38293600	     -0.65597500	      0.57566500	      0.17072900	     -0.57388600	      0.16394800	      0.44927700	     -0.68608500	      0.16193100	      0.24841100	     -0.59183000	      0.21851400	      0.38624600	     -0.74057300	      0.22080300	      0.22471400	     -0.45687200	      0.07544300	      0.33649700	     -0.68055000	      0.04162200	      0.24248200	      0.00000000	      0.00000000	      0.00000000	     -0.40279987	      0.00000000	      0.33289218	      9.00091882	    576.81540867	     11.09176049	     -0.72943243	      0.00000000	      0.23456581	      0.00000000	      0.00000000	      0.00000000	      0.00000000	     -0.36216901	      0.00000000	     -0.71186990	      0.90718269	      0.26267910	     -0.71692342	      0.89416891	      0.31833899	     -0.71476448	      0.89042556	      0.21185668	     -0.57937139	      0.50023246	      0.33259475	     -0.72004670	      0.47793403	      0.21467385	     -0.57407242	      0.08164120	      0.34627053	     -0.80886412	      0.06842312	      0.23634651	     -0.63771975	      0.98960447	      0.26326102	     -0.63983494	      0.99327207	      0.36758786	     -0.63560450	      0.98593694	      0.15893415	     -0.83817124	      1.01445222	      0.29973006	     -0.83930659	      1.01508284	      0.21553230	     -0.57613665	      0.50350869	      0.39191636	     -0.71062261	      0.47741210	      0.15592723	     -0.59035510	      0.50275910	      0.27677745	     -0.74266368	      0.48254657	      0.26032171	     -0.58090252	      0.08277546	      0.38363445	     -0.80698395	      0.06593139	      0.19697005	     -0.57887357	      0.08935529	      0.31414548	     -0.80316091	      0.07791771	      0.26588064	     -0.74536330	      1.47161901	      0.24141346	     -0.65747434	      1.39530790	      0.32788357	     -0.65492749	      1.39185977	      0.17188779	     -0.66829240	      1.39589870	      0.24567360	     -0.64855307	      1.19188380	      0.24375786	     -0.58334690	      0.60506022	      0.47607565	     -0.57356596	      0.60071802	      0.21332720	     -0.57810068	      0.66955644	      0.40453058	     -0.64065379	      0.66167241	      0.16456783	     -0.55638802	      0.59134614	      0.38293606	     -0.65597540	      0.57566494	      0.17072909	     -0.57388574	      0.16394815	      0.44927675	     -0.68608469	      0.16193148	      0.24841093	     -0.59183037	      0.21851414	      0.38624641	     -0.74057269	      0.22080320	      0.22471362	     -0.45687237	      0.07544255	      0.33649734	     -0.68054968	      0.04162191	      0.24248245
      0.64167000	     -0.64967583	      0.96623575	      0.26546668	      4.56796886	     -2.21850462	     -0.88570610	     14.37635634	      1.13018103	      4.02184472	    -17.43641003	      7.53350775	     -5.94400305	     -0.32662772	      7.81687568	    -11.01252181	     11.21165792	    -12.97860176	     -0.95149215	      5.68443644	      0.00000000	      0.00000000	      0.00000000	      0.00000000	     -0.60472616	      0.99333362	      0.36475644	     -0.60817052	      0.98860252	      0.15188239	     -0.63806645	      0.96717028	      0.26564660	     -0.80886921	      0.98646793	      0.30539531	     -0.81270486	      0.98506455	      0.21731840	     -0.70521109	      0.90933044	      0.33610054	     -0.70264176	      0.90414048	      0.19727350	     -0.70392642	      0.90673546	      0.26668702	     -0.51350177	      0.51534924	      0.39187856	     -0.55069382	      0.52077728	      0.27731122	     -0.51340005	      0.64253770	      0.46168106	     -0.52827507	      0.69875468	      0.38788196	     -0.50408473	      0.62027839	      0.36749723	     -0.56886217	      0.08299161	      0.40467767	     -0.57335043	      0.07951120	      0.33637227	     -0.54172288	      0.15825953	      0.46529633	     -0.55909536	      0.21433875	      0.40217575	     -0.57202975	      0.51674703	      0.34516904	     -0.56077762	      0.10042431	      0.36185670	     -0.44283228	      0.07878287	      0.35947593	     -0.66859441	      0.46783806	      0.14417034	     -0.70097697	      0.47825478	      0.24690469	     -0.53401884	      0.60703462	      0.21719218	     -0.60160463	      0.66585632	      0.16670519	     -0.61318831	      0.57985232	      0.16770841	     -0.81078649	      0.06278746	      0.16913334	     -0.80884224	      0.07091392	      0.23847599	     -0.68337901	      0.14488980	      0.22501562	     -0.73512082	      0.20887234	      0.20488866	     -0.71555290	      0.49051351	      0.20972271	     -0.80399420	      0.08319587	      0.21014063	     -0.68075252	      0.03636754	      0.21107254	     -0.65125847	      1.37297190	      0.32912490	     -0.65678496	      1.37018252	      0.17359989	     -0.74903099	      1.44953199	      0.24277413	     -0.66637206	      1.37355487	      0.24780193	     -0.64091394	      1.17024464	      0.24388260	     -0.70777800	      0.90669700	      0.26222300	     -0.71267000	      0.89366800	      0.31829800	     -0.71077800	      0.88994600	      0.21181000	     -0.57401400	      0.50004600	      0.33252400	     -0.71764500	      0.47750400	      0.21476100	     -0.56017700	      0.08167200	      0.34532500	     -0.80876100	      0.06843500	      0.23630400	     -0.63364300	      0.98914600	      0.26303900	     -0.63549700	      0.99279200	      0.36736600	     -0.63179000	      0.98549900	      0.15871200	     -0.83390100	      1.01390700	      0.30003000	     -0.83553000	      1.01456400	      0.21588000	     -0.57091500	      0.50328200	      0.39185500	     -0.70835500	      0.47692900	      0.15599400	     -0.58594800	      0.50234200	      0.27684700	     -0.74034600	      0.48254200	      0.26031700	     -0.56699600	      0.08259000	      0.38269700	     -0.80688500	      0.06594400	      0.19692700	     -0.56522400	      0.08924000	      0.31329300	     -0.80301200	      0.07785700	      0.26581000	     -0.74143700	      1.47110500	      0.24175700	     -0.65342200	      1.39484300	      0.32816400	     -0.65098600	      1.39144800	      0.17211700	     -0.66430100	      1.39545100	      0.24593800	     -0.64438800	      1.19145400	      0.24394000	     -0.57860000	      0.60477100	      0.47609100	     -0.57060100	      0.59975500	      0.21304900	     -0.57354600	      0.66921200	      0.40451500	     -0.63728400	      0.66104000	      0.16445500	     -0.55181400	      0.59097700	      0.38289600	     -0.65317500	      0.57507700	      0.17062500	     -0.56157600	      0.16370800	      0.44852300	     -0.68557500	      0.16121100	      0.24841000	     -0.58057700	      0.21802000	      0.38554400	     -0.73969000	      0.22037400	      0.22470600	     -0.44266000	      0.07657000	      0.33529900	     -0.68057400	      0.04158000	      0.24246300	      0.00000000	      0.00000000	      0.00000000	     -0.40217743	      0.00000000	      0.33269128	      9.93083319	    576.75369622	     11.25971582	     -0.72731482	      0.00000000	      0.23455869	      0.00000000	      0.00000000	      0.00000000	      0.00000000	     -0.39604480	      0.00000000	     -0.70777810	      0.90669727	      0.26222318	     -0.71267015	      0.89366829	      0.31829822	     -0.71077836	      0.88994610	      0.21181008	     -0.57401437	      0.50004613	      0.33252388	     -0.71764547	      0.47750428	      0.21476124	     -0.56017703	      0.08167227	      0.34532502	     -0.80876076	      0.06843521	      0.23630396	     -0.63364327	      0.98914564	      0.26303887	     -0.63549656	      0.99279231	      0.36736557	     -0.63178992	      0.98549902	      0.15871218	     -0.83390111	      1.01390660	      0.30002981	     -0.83552974	      1.01456404	      0.21587986	     -0.57091540	      0.50328201	      0.39185494	     -0.70835513	      0.47692907	      0.15599383	     -0.58594799	      0.50234151	      0.27684695	     -0.74034637	      0.48254225	      0.26031670	     -0.56699622	      0.08259020	      0.38269687	     -0.80688465	      0.06594364	      0.19692728	     -0.56522405	      0.08923998	      0.31329349	     -0.80301201	      0.07785728	      0.26580960	     -0.74143732	      1.47110474	      0.24175724	     -0.65342212	      1.39484251	      0.32816425	     -0.65098643	      1.39144754	      0.17211686	     -0.66430086	      1.39545095	      0.24593815	     -0.64438850	      1.19145358	      0.24393977	     -0.57859999	      0.60477144	      0.47609133	     -0.57060057	      0.59975541	      0.21304940	     -0.57354563	      0.66921186	      0.40451548	     -0.63728428	      0.66104025	      0.16445544	     -0.55181432	      0.59097660	      0.38289553	     -0.65317523	      0.57507658	      0.17062472	     -0.56157595	      0.16370817	      0.44852307	     -0.68557531	      0.16121100	      0.24840972	     -0.58057731	      0.21802026	      0.38554382	     -0.73968983	      0.22037365	      0.22470604	     -0.44266006	      0.07656972	      0.33529940	     -0.68057424	      0.04158002	      0.24246281
      0.65000000	     -0.64547551	      0.96574768	      0.26492628	      4.59432667	     -2.20777869	     -0.72254643	     14.49386900	      1.07243775	      3.77534073	    -16.44191674	      6.82140557	     -6.17567496	     -0.29210701	      7.83917083	    -11.14594494	     11.50227963	    -12.98792681	     -0.83752010	      5.44130115	      0.00000000	      0.00000000	      0.00000000	      0.00000000	     -0.60025240	      0.99286537	      0.36408638	     -0.60430208	      0.98812430	      0.15122321	     -0.63386600	      0.96668628	      0.26507306	     -0.80456147	      0.98592578	      0.30530786	     -0.80864775	      0.98451743	      0.21724230	     -0.70078922	      0.90882585	      0.33572049	     -0.69861393	      0.90363107	      0.19688690	     -0.69970157	      0.90622846	      0.26630369	     -0.50818192	      0.51530196	      0.39163303	     -0.54521932	      0.52068052	      0.27701327	     -0.50849911	      0.64246401	      0.46148296	     -0.52340577	      0.69867155	      0.38768306	     -0.49899032	      0.62026337	      0.36730462	     -0.55517952	      0.08291644	      0.40379931	     -0.55954767	      0.07943731	      0.33548607	     -0.52958090	      0.15862761	      0.46453607	     -0.54801415	      0.21443442	      0.40147495	     -0.56689330	      0.51660164	      0.34485010	     -0.54741028	      0.10056192	      0.36100713	     -0.42930815	      0.07981119	      0.35847420	     -0.66629954	      0.46717531	      0.14396133	     -0.69840424	      0.47777096	      0.24676456	     -0.53104194	      0.60591673	      0.21658812	     -0.59852768	      0.66495811	      0.16622385	     -0.61042608	      0.57899802	      0.16730460	     -0.81087864	      0.06289186	      0.16933846	     -0.80873005	      0.07102181	      0.23867467	     -0.68285665	      0.14424206	      0.22491546	     -0.73425947	      0.20852887	      0.20488971	     -0.71299462	      0.49004886	      0.20961396	     -0.80387220	      0.08326827	      0.21032562	     -0.68067510	      0.03631680	      0.21088046	     -0.64735503	      1.37240249	      0.32943080	     -0.65262582	      1.36981421	      0.17389344	     -0.74502023	      1.44903217	      0.24302034	     -0.66233581	      1.37308519	      0.24808403	     -0.63678075	      1.16979157	      0.24394044	     -0.70360600	      0.90628700	      0.26163900	     -0.70838100	      0.89312600	      0.31823200	     -0.70676800	      0.88943000	      0.21173900	     -0.56876000	      0.49981600	      0.33245900	     -0.71516300	      0.47705100	      0.21489800	     -0.54663200	      0.08182500	      0.34438200	     -0.80865000	      0.06845700	      0.23627500	     -0.62953200	      0.98864300	      0.26278900	     -0.63111200	      0.99226400	      0.36711000	     -0.62795100	      0.98502300	      0.15846700	     -0.82958600	      1.01333600	      0.30035500	     -0.83180300	      1.01402000	      0.21623600	     -0.56577700	      0.50302100	      0.39179700	     -0.70599800	      0.47641400	      0.15611100	     -0.58155600	      0.50184100	      0.27689800	     -0.73812800	      0.48272000	      0.26022300	     -0.55342900	      0.08253200	      0.38176200	     -0.80676800	      0.06596700	      0.19689900	     -0.55162300	      0.08934700	      0.31235200	     -0.80290700	      0.07782500	      0.26576400	     -0.73742900	      1.47060200	      0.24206100	     -0.64935500	      1.39429600	      0.32844300	     -0.64699900	      1.39100200	      0.17234700	     -0.66027600	      1.39495600	      0.24620000	     -0.64033300	      1.19096300	      0.24405900	     -0.57386400	      0.60443700	      0.47610800	     -0.56758800	      0.59879400	      0.21282000	     -0.56909900	      0.66875700	      0.40451800	     -0.63353200	      0.66048900	      0.16444500	     -0.54728300	      0.59053700	      0.38283900	     -0.65020500	      0.57445200	      0.17057600	     -0.54954500	      0.16357900	      0.44778700	     -0.68503600	      0.16048500	      0.24845900	     -0.56958700	      0.21760400	      0.38488700	     -0.73871800	      0.21992100	      0.22472200	     -0.42876100	      0.07763300	      0.33408200	     -0.68061000	      0.04154100	      0.24246400	      0.00000000	      0.00000000	      0.00000000	     -0.40154037	      0.00000000	      0.33250363	     10.86185173	    577.14782000	     11.40040017	     -0.72524835	      0.00000000	      0.23458037	      0.00000000	      0.00000000	      0.00000000	      0.00000000	     -0.42484760	      0.00000000	     -0.70360565	      0.90628666	      0.26163939	     -0.70838141	      0.89312649	      0.31823230	     -0.70676827	      0.88943046	      0.21173865	     -0.56876016	      0.49981570	      0.33245862	     -0.71516335	      0.47705129	      0.21489789	     -0.54663205	      0.08182537	      0.34438157	     -0.80864972	      0.06845740	      0.23627508	     -0.62953162	      0.98864329	      0.26278856	     -0.63111186	      0.99226385	      0.36710966	     -0.62795138	      0.98502278	      0.15846746	     -0.82958621	      1.01333606	      0.30035511	     -0.83180314	      1.01402009	      0.21623620	     -0.56577724	      0.50302088	      0.39179730	     -0.70599836	      0.47641438	      0.15611143	     -0.58155555	      0.50184077	      0.27689773	     -0.73812842	      0.48271969	      0.26022345	     -0.55342901	      0.08253181	      0.38176209	     -0.80676782	      0.06596669	      0.19689862	     -0.55162317	      0.08934693	      0.31235164	     -0.80290681	      0.07782524	      0.26576421	     -0.73742861	      1.47060180	      0.24206057	     -0.64935488	      1.39429641	      0.32844278	     -0.64699906	      1.39100170	      0.17234662	     -0.66027606	      1.39495575	      0.24620007	     -0.64033306	      1.19096291	      0.24405940	     -0.57386369	      0.60443705	      0.47610760	     -0.56758785	      0.59879375	      0.21281970	     -0.56909943	      0.66875666	      0.40451792	     -0.63353217	      0.66048878	      0.16444513	     -0.54728270	      0.59053707	      0.38283947	     -0.65020502	      0.57445180	      0.17057639	     -0.54954493	      0.16357915	      0.44778651	     -0.68503553	      0.16048490	      0.24845862	     -0.56958711	      0.21760421	      0.38488743	     -0.73871797	      0.21992120	      0.22472218	     -0.42876095	      0.07763258	      0.33408201	     -0.68060952	      0.04154053	      0.24246360
